<?xml version="1.0" encoding="utf-8"?>
<!-- Generator: Adobe Illustrator 25.2.1, SVG Export Plug-In . SVG Version: 6.00 Build 0)  -->
<svg version="1.1" id="Layer_1" xmlns="http://www.w3.org/2000/svg" xmlns:xlink="http://www.w3.org/1999/xlink" x="0px" y="0px"
	 viewBox="0 0 800 800" style="enable-background:new 0 0 800 800;" xml:space="preserve">
<style type="text/css">
	.st0{fill:#DC143C;}
	.st1{fill:#FFFFFF;}
	.st2{fill:#F93866;}
</style>
<g>
	<g id="XMLID_1_">
		<g>
			<rect x="647.12" y="-0.5" class="st0" width="38.09" height="38.1"/>
			<rect x="723.31" y="-0.5" class="st0" width="38.09" height="38.1"/>
			<rect x="761.4" y="37.6" class="st0" width="38.1" height="38.09"/>
			<rect x="609.02" y="37.6" class="st0" width="38.1" height="38.09"/>
			<rect x="723.31" y="37.6" class="st1" width="38.09" height="38.09"/>
			<rect x="647.12" y="37.6" class="st0" width="38.09" height="38.09"/>
			<rect x="647.12" y="75.69" class="st0" width="38.09" height="38.1"/>
			<rect x="723.31" y="75.69" class="st0" width="38.09" height="38.1"/>
			<rect x="685.21" y="37.6" class="st0" width="38.1" height="38.09"/>
			<rect x="685.21" y="75.69" class="st0" width="38.1" height="38.1"/>
			<rect x="685.21" y="113.79" class="st0" width="38.1" height="38.09"/>
			<rect x="-0.5" y="647.12" class="st0" width="38.1" height="38.09"/>
			<rect x="151.88" y="647.12" class="st0" width="38.1" height="38.09"/>
			<rect x="37.6" y="609.02" class="st0" width="38.09" height="38.1"/>
			<rect x="113.79" y="609.02" class="st0" width="38.09" height="38.1"/>
			<rect x="75.69" y="647.12" class="st0" width="38.1" height="38.09"/>
			<rect x="37.6" y="647.12" class="st0" width="38.09" height="38.09"/>
			<rect x="113.79" y="647.12" class="st1" width="38.09" height="38.09"/>
			<rect x="113.79" y="685.21" class="st0" width="38.09" height="38.1"/>
			<rect x="37.6" y="685.21" class="st0" width="38.09" height="38.1"/>
			<rect x="75.69" y="685.21" class="st0" width="38.1" height="38.1"/>
			<rect x="75.69" y="723.31" class="st0" width="38.1" height="38.09"/>
			<rect x="761.4" y="380.45" width="38.1" height="38.1"/>
			<rect x="761.4" y="342.36" width="38.1" height="38.09"/>
			<rect x="761.4" y="304.26" width="38.1" height="38.1"/>
			<rect x="723.31" y="418.55" width="38.09" height="38.09"/>
			<rect x="723.31" y="380.45" class="st0" width="38.09" height="38.1"/>
			<rect x="723.31" y="342.36" class="st0" width="38.09" height="38.09"/>
			<rect x="723.31" y="304.26" class="st0" width="38.09" height="38.1"/>
			<rect x="723.31" y="266.17" width="38.09" height="38.09"/>
			<rect x="685.21" y="494.74" width="38.1" height="38.09"/>
			<rect x="685.21" y="456.64" width="38.1" height="38.1"/>
			<rect x="685.21" y="418.55" class="st0" width="38.1" height="38.09"/>
			<rect x="685.21" y="380.45" class="st2" width="38.1" height="38.1"/>
			<rect x="685.21" y="342.36" class="st2" width="38.1" height="38.09"/>
			<rect x="685.21" y="304.26" class="st1" width="38.1" height="38.1"/>
			<rect x="685.21" y="266.17" class="st0" width="38.1" height="38.09"/>
			<rect x="685.21" y="228.07" width="38.1" height="38.1"/>
			<rect x="647.12" y="532.83" width="38.09" height="38.1"/>
			<rect x="647.12" y="494.74" class="st0" width="38.09" height="38.09"/>
			<rect x="647.12" y="456.64" class="st2" width="38.09" height="38.1"/>
			<rect x="647.12" y="418.55" class="st2" width="38.09" height="38.09"/>
			<rect x="647.12" y="380.45" class="st2" width="38.09" height="38.1"/>
			<rect x="647.12" y="342.36" class="st2" width="38.09" height="38.09"/>
			<rect x="647.12" y="304.26" class="st1" width="38.09" height="38.1"/>
			<rect x="647.12" y="266.17" class="st1" width="38.09" height="38.09"/>
			<rect x="647.12" y="228.07" class="st0" width="38.09" height="38.1"/>
			<rect x="647.12" y="189.98" width="38.09" height="38.09"/>
			<rect x="609.02" y="570.93" width="38.1" height="38.09"/>
			<rect x="609.02" y="532.83" class="st0" width="38.1" height="38.1"/>
			<rect x="609.02" y="494.74" class="st2" width="38.1" height="38.09"/>
			<rect x="609.02" y="456.64" class="st2" width="38.1" height="38.1"/>
			<rect x="609.02" y="418.55" class="st2" width="38.1" height="38.09"/>
			<rect x="609.02" y="380.45" class="st0" width="38.1" height="38.1"/>
			<rect x="609.02" y="342.36" class="st0" width="38.1" height="38.09"/>
			<rect x="609.02" y="304.26" class="st0" width="38.1" height="38.1"/>
			<rect x="609.02" y="266.17" class="st1" width="38.1" height="38.09"/>
			<rect x="609.02" y="228.07" class="st1" width="38.1" height="38.1"/>
			<rect x="609.02" y="189.98" class="st0" width="38.1" height="38.09"/>
			<rect x="609.02" y="151.88" width="38.1" height="38.1"/>
			<rect x="570.93" y="609.02" width="38.09" height="38.1"/>
			<rect x="570.93" y="570.93" class="st0" width="38.09" height="38.09"/>
			<rect x="570.93" y="532.83" class="st2" width="38.09" height="38.1"/>
			<rect x="570.93" y="494.74" class="st2" width="38.09" height="38.09"/>
			<rect x="570.93" y="456.64" class="st0" width="38.09" height="38.1"/>
			<rect x="570.93" y="418.55" class="st0" width="38.09" height="38.09"/>
			<rect x="570.93" y="380.45" class="st0" width="38.09" height="38.1"/>
			<rect x="570.93" y="342.36" class="st0" width="38.09" height="38.09"/>
			<rect x="570.93" y="304.26" class="st0" width="38.09" height="38.1"/>
			<rect x="570.93" y="266.17" class="st2" width="38.09" height="38.09"/>
			<rect x="570.93" y="228.07" class="st1" width="38.09" height="38.1"/>
			<rect x="570.93" y="189.98" class="st0" width="38.09" height="38.09"/>
			<rect x="570.93" y="151.88" width="38.09" height="38.1"/>
			<rect x="532.83" y="647.12" width="38.1" height="38.09"/>
			<rect x="532.83" y="609.02" class="st0" width="38.1" height="38.1"/>
			<rect x="532.83" y="570.93" class="st2" width="38.1" height="38.09"/>
			<rect x="532.83" y="532.83" class="st2" width="38.1" height="38.1"/>
			<rect x="532.83" y="494.74" class="st0" width="38.1" height="38.09"/>
			<rect x="532.83" y="456.64" class="st0" width="38.1" height="38.1"/>
			<rect x="532.83" y="418.55" class="st0" width="38.1" height="38.09"/>
			<rect x="532.83" y="380.45" class="st0" width="38.1" height="38.1"/>
			<rect x="532.83" y="342.36" class="st0" width="38.1" height="38.09"/>
			<rect x="532.83" y="304.26" class="st0" width="38.1" height="38.1"/>
			<rect x="532.83" y="266.17" class="st2" width="38.1" height="38.09"/>
			<rect x="532.83" y="228.07" class="st2" width="38.1" height="38.1"/>
			<rect x="532.83" y="189.98" class="st0" width="38.1" height="38.09"/>
			<rect x="532.83" y="151.88" width="38.1" height="38.1"/>
			<rect x="494.74" y="685.21" width="38.09" height="38.1"/>
			<rect x="494.74" y="647.12" class="st0" width="38.09" height="38.09"/>
			<rect x="494.74" y="609.02" class="st2" width="38.09" height="38.1"/>
			<rect x="494.74" y="570.93" class="st2" width="38.09" height="38.09"/>
			<rect x="494.74" y="532.83" class="st0" width="38.09" height="38.1"/>
			<rect x="494.74" y="494.74" class="st0" width="38.09" height="38.09"/>
			<rect x="494.74" y="456.64" class="st0" width="38.09" height="38.1"/>
			<rect x="494.74" y="418.55" class="st0" width="38.09" height="38.09"/>
			<rect x="494.74" y="380.45" class="st0" width="38.09" height="38.1"/>
			<rect x="494.74" y="342.36" class="st0" width="38.09" height="38.09"/>
			<rect x="494.74" y="304.26" class="st2" width="38.09" height="38.1"/>
			<rect x="494.74" y="266.17" class="st2" width="38.09" height="38.09"/>
			<rect x="494.74" y="228.07" class="st0" width="38.09" height="38.1"/>
			<rect x="494.74" y="189.98" width="38.09" height="38.09"/>
			<rect x="456.64" y="723.31" width="38.1" height="38.09"/>
			<rect x="456.64" y="685.21" class="st0" width="38.1" height="38.1"/>
			<rect x="456.64" y="647.12" class="st2" width="38.1" height="38.09"/>
			<rect x="456.64" y="609.02" class="st2" width="38.1" height="38.1"/>
			<rect x="456.64" y="570.93" class="st0" width="38.1" height="38.09"/>
			<rect x="456.64" y="532.83" class="st0" width="38.1" height="38.1"/>
			<rect x="456.64" y="494.74" class="st0" width="38.1" height="38.09"/>
			<rect x="456.64" y="456.64" class="st0" width="38.1" height="38.1"/>
			<rect x="456.64" y="418.55" class="st0" width="38.1" height="38.09"/>
			<rect x="456.64" y="380.45" class="st0" width="38.1" height="38.1"/>
			<rect x="456.64" y="342.36" class="st2" width="38.1" height="38.09"/>
			<rect x="456.64" y="304.26" class="st2" width="38.1" height="38.1"/>
			<rect x="456.64" y="266.17" class="st0" width="38.1" height="38.09"/>
			<rect x="456.64" y="228.07" class="st0" width="38.1" height="38.1"/>
			<rect x="456.64" y="189.98" width="38.1" height="38.09"/>
			<rect x="418.55" y="761.4" width="38.09" height="38.1"/>
			<rect x="418.55" y="723.31" class="st0" width="38.09" height="38.09"/>
			<rect x="418.55" y="685.21" class="st2" width="38.09" height="38.1"/>
			<rect x="418.55" y="647.12" class="st2" width="38.09" height="38.09"/>
			<rect x="418.55" y="609.02" class="st0" width="38.09" height="38.1"/>
			<rect x="418.55" y="570.93" class="st0" width="38.09" height="38.09"/>
			<rect x="418.55" y="532.83" class="st0" width="38.09" height="38.1"/>
			<rect x="418.55" y="494.74" class="st0" width="38.09" height="38.09"/>
			<rect x="418.55" y="456.64" class="st0" width="38.09" height="38.1"/>
			<rect x="418.55" y="418.55" class="st0" width="38.09" height="38.09"/>
			<rect x="418.55" y="380.45" class="st2" width="38.09" height="38.1"/>
			<rect x="418.55" y="342.36" class="st2" width="38.09" height="38.09"/>
			<rect x="418.55" y="304.26" class="st0" width="38.09" height="38.1"/>
			<rect x="418.55" y="266.17" width="38.09" height="38.09"/>
			<rect x="418.55" y="228.07" width="38.09" height="38.1"/>
			<rect x="380.45" y="761.4" width="38.1" height="38.1"/>
			<rect x="380.45" y="723.31" class="st0" width="38.1" height="38.09"/>
			<rect x="380.45" y="685.21" class="st2" width="38.1" height="38.1"/>
			<rect x="380.45" y="647.12" class="st2" width="38.1" height="38.09"/>
			<rect x="380.45" y="609.02" class="st0" width="38.1" height="38.1"/>
			<rect x="380.45" y="570.93" class="st0" width="38.1" height="38.09"/>
			<rect x="380.45" y="532.83" class="st0" width="38.1" height="38.1"/>
			<rect x="380.45" y="494.74" class="st0" width="38.1" height="38.09"/>
			<rect x="380.45" y="456.64" class="st0" width="38.1" height="38.1"/>
			<rect x="380.45" y="418.55" class="st0" width="38.1" height="38.09"/>
			<rect x="380.45" y="380.45" class="st2" width="38.1" height="38.1"/>
			<rect x="380.45" y="342.36" class="st2" width="38.1" height="38.09"/>
			<rect x="380.45" y="304.26" class="st0" width="38.1" height="38.1"/>
			<rect x="380.45" y="266.17" width="38.1" height="38.09"/>
			<rect x="380.45" y="228.07" width="38.1" height="38.1"/>
			<rect x="342.36" y="723.31" width="38.09" height="38.09"/>
			<rect x="342.36" y="685.21" class="st0" width="38.09" height="38.1"/>
			<rect x="342.36" y="647.12" class="st2" width="38.09" height="38.09"/>
			<rect x="342.36" y="609.02" class="st2" width="38.09" height="38.1"/>
			<rect x="342.36" y="570.93" class="st0" width="38.09" height="38.09"/>
			<rect x="342.36" y="532.83" class="st0" width="38.09" height="38.1"/>
			<rect x="342.36" y="494.74" class="st0" width="38.09" height="38.09"/>
			<rect x="342.36" y="456.64" class="st0" width="38.09" height="38.1"/>
			<rect x="342.36" y="418.55" class="st0" width="38.09" height="38.09"/>
			<rect x="342.36" y="380.45" class="st0" width="38.09" height="38.1"/>
			<rect x="342.36" y="342.36" class="st2" width="38.09" height="38.09"/>
			<rect x="342.36" y="304.26" class="st2" width="38.09" height="38.1"/>
			<rect x="342.36" y="266.17" class="st0" width="38.09" height="38.09"/>
			<rect x="342.36" y="228.07" class="st0" width="38.09" height="38.1"/>
			<rect x="342.36" y="189.98" width="38.09" height="38.09"/>
			<rect x="304.26" y="685.21" width="38.1" height="38.1"/>
			<rect x="304.26" y="647.12" class="st0" width="38.1" height="38.09"/>
			<rect x="304.26" y="609.02" class="st2" width="38.1" height="38.1"/>
			<rect x="304.26" y="570.93" class="st2" width="38.1" height="38.09"/>
			<rect x="304.26" y="532.83" class="st0" width="38.1" height="38.1"/>
			<rect x="304.26" y="494.74" class="st0" width="38.1" height="38.09"/>
			<rect x="304.26" y="456.64" class="st0" width="38.1" height="38.1"/>
			<rect x="304.26" y="418.55" class="st0" width="38.1" height="38.09"/>
			<rect x="304.26" y="380.45" class="st0" width="38.1" height="38.1"/>
			<rect x="304.26" y="342.36" class="st0" width="38.1" height="38.09"/>
			<rect x="304.26" y="304.26" class="st2" width="38.1" height="38.1"/>
			<rect x="304.26" y="266.17" class="st1" width="38.1" height="38.09"/>
			<rect x="304.26" y="228.07" class="st0" width="38.1" height="38.1"/>
			<rect x="304.26" y="189.98" width="38.1" height="38.09"/>
			<rect x="266.17" y="647.12" width="38.09" height="38.09"/>
			<rect x="266.17" y="609.02" class="st0" width="38.09" height="38.1"/>
			<rect x="266.17" y="570.93" class="st2" width="38.09" height="38.09"/>
			<rect x="266.17" y="532.83" class="st2" width="38.09" height="38.1"/>
			<rect x="266.17" y="494.74" class="st0" width="38.09" height="38.09"/>
			<rect x="266.17" y="456.64" class="st0" width="38.09" height="38.1"/>
			<rect x="266.17" y="418.55" class="st0" width="38.09" height="38.09"/>
			<rect x="266.17" y="380.45" class="st0" width="38.09" height="38.1"/>
			<rect x="266.17" y="342.36" class="st0" width="38.09" height="38.09"/>
			<rect x="266.17" y="304.26" class="st0" width="38.09" height="38.1"/>
			<rect x="266.17" y="266.17" class="st2" width="38.09" height="38.09"/>
			<rect x="266.17" y="228.07" class="st1" width="38.09" height="38.1"/>
			<rect x="266.17" y="189.98" class="st0" width="38.09" height="38.09"/>
			<rect x="266.17" y="151.88" width="38.09" height="38.1"/>
			<rect x="228.07" y="609.02" width="38.1" height="38.1"/>
			<rect x="228.07" y="570.93" class="st0" width="38.1" height="38.09"/>
			<rect x="228.07" y="532.83" class="st2" width="38.1" height="38.1"/>
			<rect x="228.07" y="494.74" class="st2" width="38.1" height="38.09"/>
			<rect x="228.07" y="456.64" class="st0" width="38.1" height="38.1"/>
			<rect x="228.07" y="418.55" class="st0" width="38.1" height="38.09"/>
			<rect x="228.07" y="380.45" class="st0" width="38.1" height="38.1"/>
			<rect x="228.07" y="342.36" class="st0" width="38.1" height="38.09"/>
			<rect x="228.07" y="304.26" class="st0" width="38.1" height="38.1"/>
			<rect x="228.07" y="266.17" class="st2" width="38.1" height="38.09"/>
			<rect x="228.07" y="228.07" class="st2" width="38.1" height="38.1"/>
			<rect x="228.07" y="189.98" class="st0" width="38.1" height="38.09"/>
			<rect x="228.07" y="151.88" width="38.1" height="38.1"/>
			<rect x="189.98" y="570.93" width="38.09" height="38.09"/>
			<rect x="189.98" y="532.83" class="st0" width="38.09" height="38.1"/>
			<rect x="189.98" y="494.74" class="st2" width="38.09" height="38.09"/>
			<rect x="189.98" y="456.64" class="st2" width="38.09" height="38.1"/>
			<rect x="189.98" y="418.55" class="st2" width="38.09" height="38.09"/>
			<rect x="189.98" y="380.45" class="st0" width="38.09" height="38.1"/>
			<rect x="189.98" y="342.36" class="st0" width="38.09" height="38.09"/>
			<rect x="189.98" y="304.26" class="st0" width="38.09" height="38.1"/>
			<rect x="189.98" y="266.17" class="st2" width="38.09" height="38.09"/>
			<rect x="189.98" y="228.07" class="st2" width="38.09" height="38.1"/>
			<rect x="189.98" y="189.98" class="st0" width="38.09" height="38.09"/>
			<rect x="189.98" y="151.88" width="38.09" height="38.1"/>
			<rect x="151.88" y="532.83" width="38.1" height="38.1"/>
			<rect x="151.88" y="494.74" class="st0" width="38.1" height="38.09"/>
			<rect x="151.88" y="456.64" class="st2" width="38.1" height="38.1"/>
			<rect x="151.88" y="418.55" class="st2" width="38.1" height="38.09"/>
			<rect x="151.88" y="380.45" class="st2" width="38.1" height="38.1"/>
			<rect x="151.88" y="342.36" class="st2" width="38.1" height="38.09"/>
			<rect x="151.88" y="304.26" class="st2" width="38.1" height="38.1"/>
			<rect x="151.88" y="266.17" class="st2" width="38.1" height="38.09"/>
			<rect x="151.88" y="228.07" class="st0" width="38.1" height="38.1"/>
			<rect x="151.88" y="189.98" width="38.1" height="38.09"/>
			<rect x="113.79" y="494.74" width="38.09" height="38.09"/>
			<rect x="113.79" y="456.64" width="38.09" height="38.1"/>
			<rect x="113.79" y="418.55" class="st0" width="38.09" height="38.09"/>
			<rect x="113.79" y="380.45" class="st2" width="38.09" height="38.1"/>
			<rect x="113.79" y="342.36" class="st2" width="38.09" height="38.09"/>
			<rect x="113.79" y="304.26" class="st2" width="38.09" height="38.1"/>
			<rect x="113.79" y="266.17" class="st0" width="38.09" height="38.09"/>
			<rect x="113.79" y="228.07" width="38.09" height="38.1"/>
			<rect x="75.69" y="418.55" width="38.1" height="38.09"/>
			<rect x="75.69" y="380.45" class="st0" width="38.1" height="38.1"/>
			<rect x="75.69" y="342.36" class="st0" width="38.1" height="38.09"/>
			<rect x="75.69" y="304.26" class="st0" width="38.1" height="38.1"/>
			<rect x="75.69" y="266.17" width="38.1" height="38.09"/>
			<rect x="37.6" y="380.45" width="38.09" height="38.1"/>
			<rect x="37.6" y="342.36" width="38.09" height="38.09"/>
			<rect x="37.6" y="304.26" width="38.09" height="38.1"/>
		</g>
		<g>
		</g>
	</g>
</g>
</svg>
